PathFileType	4	(X/Y/Z)	RBDS001\RBDS001runT25.trc																																																																																																	
DataRate	CameraRate	NumFrames	NumMarkers	Units	OrigDataRate	OrigDataStartFrame	OrigNumFrames																																																																																													
150	150	9	33	mm	150	3375	4500																																																																																													
Frame#	Time	L.ASIS			L.Heel.Bottom			L.Heel.Lateral			L.Heel.Top			L.Iliac.Crest			L.MT1			L.MT5			L.PSIS			L.Shank.Bottom.Lateral			L.Shank.Bottom.Medial			L.Shank.Top.Lateral			L.Shank.Top.Medial			L.Thigh.Bottom.Lateral			L.Thigh.Bottom.Medial			L.Thigh.Top.Lateral			L.Thigh.Top.Medial			R.ASIS			R.ASY			R.Heel.Bottom			R.Heel.Lateral			R.Heel.Top			R.Iliac.Crest			R.MT5			R.MT1			R.PSIS			R.Shank.Bottom.Lateral			R.Shank.Bottom.Medial			R.Shank.Top.Lateral			R.Shank.Top.Medial			R.Thigh.Bottom.Lateral			R.Thigh.Bottom.Medial			R.Thigh.Top.Lateral			R.Thigh.Top.Medial		
		X1	Y1	Z1	X2	Y2	Z2	X3	Y3	Z3	X4	Y4	Z4	X5	Y5	Z5	X6	Y6	Z6	X7	Y7	Z7	X8	Y8	Z8	X9	Y9	Z9	X10	Y10	Z10	X11	Y11	Z11	X12	Y12	Z12	X13	Y13	Z13	X14	Y14	Z14	X15	Y15	Z15	X16	Y16	Z16	X17	Y17	Z17	X18	Y18	Z18	X19	Y19	Z19	X20	Y20	Z20	X21	Y21	Z21	X22	Y22	Z22	X23	Y23	Z23	X24	Y24	Z24	X25	Y25	Z25	X26	Y26	Z26	X27	Y27	Z27	X28	Y28	Z28	X29	Y29	Z29	X30	Y30	Z30	X31	Y31	Z31	X32	Y32	Z32	X33	Y33	Z33
																																																																																																				
3376	22.5	2363.056604	1078.9662	949.7169722	2247.750547	124.9979147	994.3839952	2272.527124	132.2920552	949.3017379	2267.927231	168.2557847	992.4921533	2305.508111	1151.06602	914.0036991	2470.959062	86.84229013	999.1003135	2421.5078	84.38422746	901.5378008	2198.529897	1122.162925	1013.155827	2352.105749	253.9514024	925.4191015	2314.91344	262.9238167	959.9939299	2362.866031	332.908759	911.2552755	2326.370975	345.9869106	948.2652051	2397.752952	692.4294145	888.6621767	2350.941883	669.1193826	940.2149523	2336.753545	784.0620446	879.0603881	2294.751848	764.1071184	930.2463241	2359.688193	1054.152511	1156.666245	462721400	385338800.7	19412540224	1802.063057	200.2559125	1062.918317	1832.820701	185.1748651	1106.165214	1843.619586	225.6701766	1067.411652	2316.976838	1135.423526	1182.730682	1944.586317	65.05602591	1119.137056	1969.870264	63.22577985	1012.13686	2202.576201	1119.491835	1089.460148	1943.754172	264.2943269	1124.100203	1910.669364	290.6914373	1089.250331	1979.953638	334.8451646	1142.503344	1946.918216	360.029258	1107.590904	2172.234504	656.0331642	1176.578894	2117.136414	670.9265673	1128.726096	2182.448715	765.094699	1193.305368	2131.301599	778.6463588	1146.687992
3377	22.50666667	2364.158511	1081.526489	949.8136285	2268.816353	114.5548628	997.5423852	2292.755424	122.3204256	952.0935519	2286.837946	158.6635311	994.7720554	2306.798279	1153.872239	913.9719375	2493.187392	87.15882207	1001.034358	2443.319844	80.76479355	903.8937187	2200.090718	1125.24751	1013.307687	2365.600381	248.2950351	927.0068567	2328.436656	255.3020213	962.0363343	2372.10372	327.6692158	912.6931744	2335.437888	338.8290366	950.1791976	2394.234233	692.6702447	889.6627593	2346.621139	669.9229592	940.6506924	2334.826027	785.3245226	879.7820352	2292.203354	765.7652108	930.483043	2361.332909	1056.954556	1156.53165	463272943.7	385799458.1	19435736106	1797.299626	211.9174474	1065.270347	1826.969829	194.7557171	1108.484404	1840.060704	235.1227546	1070.350761	2319.135647	1138.550421	1182.453362	1932.51733	68.02392924	1120.574816	1958.448736	66.86467707	1013.796879	2204.321473	1122.731796	1089.650738	1938.249429	270.0020352	1126.740334	1905.663175	296.2582733	1091.391232	1974.802056	340.5104719	1144.692113	1942.12704	365.5860932	1109.39268	2169.959552	660.4886774	1177.390778	2115.242534	675.8534483	1129.29077	2181.36908	769.455703	1193.872458	2130.632024	783.4276307	1146.94589
3378	22.51333333	2365.272038	1083.560269	950.0084084	2289.430623	105.0158831	1000.837784	2312.553033	113.1765204	955.0456627	2305.254593	149.8557967	997.1668881	2308.206455	1156.130252	913.9018238	2514.460258	88.44525493	1002.983784	2464.404059	77.9955142	906.3420507	2201.576112	1127.822312	1013.28962	2378.571834	243.107441	928.673721	2341.519064	248.2157404	964.1295953	2380.927051	322.6593485	914.1953268	2344.155649	331.9554895	952.1188052	2390.498628	692.3215831	890.6214285	2342.142452	670.2553002	941.1141033	2332.777113	786.0172867	880.4049191	2289.552837	766.9497825	930.6469304	2362.83853	1059.489957	1156.469659	463824925.5	386260482.5	19458950459	1793.038222	223.2672634	1067.784651	1821.563559	204.1690623	1110.950209	1836.859061	244.2895174	1073.40514	2321.028651	1141.368244	1182.187837	1920.856186	71.2410583	1122.124131	1947.383943	70.78870901	1015.649226	2205.906638	1125.537148	1089.697357	1933.206174	275.4866991	1129.380719	1901.105162	301.6844334	1093.618511	1970.27436	345.8653673	1146.87694	1937.942024	370.9302964	1111.267561	2168.470355	664.3332453	1178.099747	2114.022471	680.0859073	1129.859084	2180.895831	773.1994002	1194.393209	2130.425374	787.5239194	1147.297527
3379	22.52	2366.379568	1085.07201	950.2937005	2309.316767	96.43715846	1004.276818	2331.676605	104.8930568	958.1758101	2322.931965	141.881847	999.6817002	2309.713479	1157.838027	913.803531	2534.556217	90.63965598	1004.978222	2484.539798	76.01627867	908.9233884	2202.964644	1129.867018	1013.110656	2390.875639	238.4182497	930.4339434	2353.996335	241.7222191	966.2706687	2389.243439	317.9261221	915.7668389	2352.407712	325.4435768	954.0684265	2386.603744	691.4499492	891.5391653	2337.617202	670.1876426	941.6652823	2330.614939	786.1735668	880.9406874	2286.857296	767.7083697	930.8037204	2364.194116	1061.727093	1156.477916	464377345.6	386721873.9	19482183289	1789.144188	234.2016635	1070.455339	1816.526819	213.3402778	1113.550489	1833.880784	253.1090128	1076.533818	2322.633261	1143.851927	1181.937279	1909.656631	74.72492016	1123.793256	1936.674824	74.94290037	1017.671188	2207.311721	1127.875704	1089.607434	1928.573081	280.7456285	1131.986246	1896.938868	306.9887333	1095.909033	1966.336851	350.8885136	1149.029467	1934.338532	376.0544363	1113.192414	2167.797414	667.4768741	1178.71597	2113.496974	683.5406207	1130.444808	2181.048645	776.2376846	1194.887061	2130.68581	790.8550019	1147.773079
3380	22.52666667	2367.457643	1086.079607	950.6529477	2328.182774	88.85774352	1007.866416	2349.861555	97.4801884	961.4960943	2339.622192	134.7750273	1002.31657	2311.281906	1159.008998	913.6910235	2553.247885	93.59581503	1007.05049	2503.484882	74.69811615	911.6779404	2204.232612	1131.368776	1012.795828	2402.36468	234.2336777	932.2961541	2365.704039	235.8531619	968.4598617	2396.957491	313.5031594	917.4137426	2360.081509	319.355368	956.0234527	2382.620403	690.1398341	892.4262126	2333.154281	669.7949906	942.3551149	2328.359146	785.8468719	881.412334	2284.173941	768.0952234	931.017445	2365.393151	1063.630447	1156.548787	464930204.1	387183632.7	19505434605	1785.485127	244.6341122	1073.284499	1811.792734	222.2047876	1116.279512	1830.999289	261.5358005	1079.702013	2323.937597	1145.970554	1181.705099	1898.990178	78.49677695	1125.590714	1926.33136	79.28089422	1019.829134	2208.521887	1129.716415	1089.401447	1924.309313	285.7811282	1134.529315	1893.120184	312.1923305	1098.246626	1962.960609	355.5646822	1151.128793	1931.296617	380.954291	1115.152275	2167.958352	669.8393767	1179.254729	2113.682371	686.1397418	1131.058299	2181.8306	778.4923503	1195.37515	2131.412875	793.3457532	1148.391931
3381	22.53333333	2368.478956	1086.61197	951.0617262	2345.728429	82.29276665	1011.611264	2366.827377	90.92358501	965.0105815	2355.080511	128.5480988	1005.067288	2312.856806	1159.669168	913.5806602	2570.311205	97.0828492	1009.237309	2520.98383	73.85176015	914.6424978	2205.35576	1132.322197	1012.385165	2412.89298	230.5328841	934.2631926	2376.482408	230.6109461	970.7014433	2403.973739	309.4065401	919.1427917	2367.072562	313.7330132	957.9909437	2378.635043	688.487734	893.3000147	2328.857673	669.1481514	943.2163925	2326.046572	785.106728	881.8518668	2281.56011	768.1639453	931.3410079	2366.43373	1065.161634	1156.669506	465483501.3	387645758.9	19528704413	1781.943612	254.5011401	1076.27996	1807.308902	230.7121406	1119.136833	1828.107106	269.5434476	1082.883131	2324.940638	1147.687526	1181.495674	1888.942243	82.5764649	1127.523574	1916.376759	83.76921349	1022.081535	2209.528681	1131.030405	1089.112395	1920.388544	290.6000001	1136.991094	1889.621995	317.3163703	1100.621582	1960.123806	359.8856236	1153.162446	1928.802768	385.6286598	1117.140233	2168.954715	671.3553659	1179.733887	2114.5876	687.8153686	1131.704182	2183.226275	779.9005898	1195.876652	2132.59999	794.931069	1149.159027
3382	22.54	2369.414995	1086.705459	951.4895702	2361.654099	76.72674397	1015.510672	2382.285887	85.18398762	968.7135969	2369.070701	123.1883923	1007.927231	2314.369184	1159.852591	913.4894795	2585.534224	100.7957557	1011.580257	2536.778188	73.24659429	917.8474619	2206.311489	1132.728673	1011.930937	2422.319817	227.2662849	936.3332906	2386.180227	225.9671086	973.0034695	2410.199969	305.6313833	920.9609405	2373.287189	308.5952344	959.9877474	2374.749656	686.5938057	894.1816253	2324.824546	668.3059127	944.2574807	2323.733826	784.0314541	882.2962264	2279.07301	767.9598829	931.8085638	2367.318665	1066.281223	1156.822787	466037237.3	388108252.7	19551992720	1778.430014	263.7666056	1079.45106	1803.042604	238.8291093	1122.124667	1825.12755	277.1257727	1086.059562	2325.65197	1148.962038	1181.314858	1879.604733	86.97578527	1129.595949	1906.848885	88.38791	1024.3841	2210.331066	1131.792199	1088.783836	1916.80172	295.2128929	1139.362115	1886.4375	322.3794595	1103.029119	1957.813336	363.8507109	1155.126547	1926.851503	390.0788635	1119.155802	2170.76983	671.978813	1180.171368	2116.211815	688.5144387	1132.379426	2185.201732	780.4198193	1196.405379	2134.233766	795.5609849	1150.062543
3383	22.54666667	2370.23894	1086.399453	951.9024516	2375.67082	72.10841169	1019.555515	2395.951896	80.19881178	972.5888796	2381.370062	118.6539306	1010.890085	2315.741925	1159.595757	913.4333521	2598.724559	104.3768093	1014.126249	2550.617924	72.63781225	921.3140667	2207.081247	1132.594955	1011.493235	2430.51397	224.3566159	938.5024573	2394.657644	221.8637184	975.3767849	2415.550945	302.1501018	922.8746286	2378.643624	303.9356806	962.0363765	2371.078537	684.551924	895.0912926	2321.143555	667.3084423	945.4600639	2321.495674	782.6987118	882.7819524	2276.768946	767.5134685	932.4311646	2368.055372	1066.951002	1156.987982	466591412.2	388571114.1	19575299535	1774.8938	272.4237188	1082.803015	1798.984392	246.5414699	1125.244118	1822.024766	284.2960751	1089.222066	2326.091117	1149.751647	1181.170129	1871.065872	91.69208451	1131.807956	1897.800296	93.12747355	1026.696292	2210.936	1131.980867	1088.466459	1913.558184	299.6332694	1141.64219	1883.581866	327.3949737	1105.467128	1956.025631	367.466914	1157.025213	1925.446577	394.3076526	1121.202171	2173.36795	671.6864459	1180.583048	2118.542839	688.2032218	1133.072161	2187.706259	780.0310564	1196.967168	2136.294108	795.2051354	1151.073262
3384	22.55333333	2370.928392	1085.731488	952.2657034	2387.511239	68.34866954	1023.725882	2407.555391	75.88627038	976.6096701	2391.774023	114.8718683	1013.952841	2316.897642	1158.931705	913.4252139	2609.71511	107.4459846	1016.926755	2562.272864	71.79783102	925.0519346	2207.652715	1131.93114	1011.134206	2437.357887	221.7032416	940.7676467	2401.788046	218.2179311	977.8333886	2419.952148	298.9131171	924.8891312	2383.07183	299.7237085	964.1595811	2367.741534	682.4393772	896.0442283	2317.892942	666.1729302	946.7818107	2319.41897	781.1751591	883.3395308	2274.701715	766.8356339	933.1965599	2368.655466	1067.136245	1157.142675	467146026.3	389034343.5	19598624864	1771.331512	280.4944189	1086.330897	1795.149604	253.8542358	1128.490962	1818.810525	291.0843885	1092.367733	2326.286401	1150.015477	1181.070288	1863.398982	96.7037692	1134.155435	1889.296412	97.98293094	1028.98803	2211.358288	1131.580896	1088.213384	1910.684974	303.8758849	1143.839626	1881.091943	332.3684223	1107.933667	1954.766609	370.747825	1158.869295	1924.601496	398.3175118	1123.282971	2176.694895	670.4793743	1180.981347	2121.556596	686.8705727	1133.761626	2190.675578	778.7402732	1197.558532	2138.754989	793.8557449	1152.14591
